<svg width="17" height="16" viewBox="0 0 17 16" fill="none" xmlns="http://www.w3.org/2000/svg">
<path fill-rule="evenodd" clip-rule="evenodd" d="M5.83337 1.33203C3.62424 1.33203 1.83337 3.12289 1.83337 5.33203V10.6654C1.83337 12.8745 3.62423 14.6654 5.83337 14.6654L8.42055 14.6654V10.1039H6.84404V8.32622H8.42055V7.0153C8.42055 5.49383 9.37463 4.66536 10.7687 4.66536C11.4365 4.66536 12.01 4.71395 12.1774 4.73555V6.32573L11.2107 6.32622C10.4527 6.32622 10.306 6.67714 10.306 7.1915V8.32671H12.1139L11.8785 10.1044H10.306V14.6654L11.1667 14.6654C13.3758 14.6654 15.1667 12.8745 15.1667 10.6654V5.33203C15.1667 3.12289 13.3758 1.33203 11.1667 1.33203H5.83337Z" fill="#6B7280"/>
</svg>
