<svg width="16" height="16" viewBox="0 0 16 16" fill="none" xmlns="http://www.w3.org/2000/svg">
<path d="M2.99996 13.3346V6.66797H11V7.33464C11.4666 7.33464 11.9133 7.4013 12.3333 7.52797V6.66797C12.3333 5.93464 11.7333 5.33464 11 5.33464H10.3333V4.0013C10.3333 2.1613 8.83996 0.667969 6.99996 0.667969C5.15996 0.667969 3.66663 2.1613 3.66663 4.0013V5.33464H2.99996C2.26663 5.33464 1.66663 5.93464 1.66663 6.66797V13.3346C1.66663 14.068 2.26663 14.668 2.99996 14.668H7.17329C6.89329 14.268 6.67329 13.8146 6.52663 13.3346H2.99996ZM4.99996 4.0013C4.99996 2.89464 5.89329 2.0013 6.99996 2.0013C8.10663 2.0013 8.99996 2.89464 8.99996 4.0013V5.33464H4.99996V4.0013Z" fill="#6B7280"/>
<path d="M11 8.66797C9.15996 8.66797 7.66663 10.1613 7.66663 12.0013C7.66663 13.8413 9.15996 15.3346 11 15.3346C12.84 15.3346 14.3333 13.8413 14.3333 12.0013C14.3333 10.1613 12.84 8.66797 11 8.66797ZM11 10.0013C11.5533 10.0013 12 10.448 12 11.0013C12 11.5546 11.5533 12.0013 11 12.0013C10.4466 12.0013 9.99996 11.5546 9.99996 11.0013C9.99996 10.448 10.4466 10.0013 11 10.0013ZM11 14.0013C10.3133 14.0013 9.70663 13.6546 9.34663 13.1213C9.83329 12.8413 10.3933 12.668 11 12.668C11.6066 12.668 12.1666 12.8413 12.6533 13.1213C12.2933 13.6546 11.6866 14.0013 11 14.0013Z" fill="#6B7280"/>
</svg>
