<svg width="64" height="64" viewBox="0 0 64 64" fill="none" xmlns="http://www.w3.org/2000/svg">
<path opacity="0.6" d="M49.9431 19.7109H46.7431H46.7315C45.6212 19.7109 44.7728 19.7109 44.0956 19.7663C43.4131 19.822 42.8826 19.9352 42.4137 20.1742C41.614 20.5816 40.9638 21.2318 40.5564 22.0315C40.3174 22.5004 40.2042 23.0309 40.1485 23.7134C40.0931 24.3906 40.0931 25.239 40.0931 26.3493V26.3609V37.5609V37.5726C40.0931 38.6828 40.0931 39.5313 40.1485 40.2085C40.2042 40.891 40.3174 41.4215 40.5564 41.8904C40.9638 42.6901 41.614 43.3403 42.4137 43.7477C42.8826 43.9867 43.4131 44.0999 44.0956 44.1556C44.7728 44.2109 45.6212 44.2109 46.7315 44.2109H46.7431H49.9431H49.9548C51.0651 44.2109 51.9135 44.2109 52.5907 44.1556C53.2732 44.0999 53.8037 43.9867 54.2726 43.7477C55.0723 43.3403 55.7225 42.6901 56.1299 41.8904C56.3689 41.4215 56.4821 40.891 56.5378 40.2085C56.5931 39.5313 56.5931 38.6829 56.5931 37.5726V37.5609V26.3609V26.3493C56.5931 25.239 56.5931 24.3906 56.5378 23.7134C56.4821 23.0309 56.3689 22.5004 56.1299 22.0315C55.7225 21.2318 55.0723 20.5816 54.2726 20.1742C53.8037 19.9352 53.2732 19.822 52.5907 19.7663C51.9135 19.7109 51.065 19.7109 49.9548 19.7109H49.9431Z" fill="#06B6D4" stroke="#06B6D4" stroke-width="0.5"/>
<path opacity="0.4" d="M18.3798 26.1622L18.3798 26.1622L22.0917 40.0151C21.8879 39.9846 21.6861 39.9372 21.4883 39.873C21.0755 39.7388 20.678 39.4895 20.1796 39.0665C19.679 38.6415 19.0933 38.056 18.2984 37.2611L10.3788 29.3415C9.58382 28.5465 8.99838 27.9608 8.57341 27.4602C8.15034 26.9619 7.90103 26.5644 7.76691 26.1516C7.52219 25.3984 7.52219 24.5871 7.76691 23.834C7.90103 23.4212 8.15035 23.0237 8.57342 22.5253C8.99838 22.0248 9.58383 21.439 10.3788 20.6441L12.6415 18.3813C13.4365 17.5864 14.0222 17.0009 14.5228 16.576C15.0211 16.1529 15.4186 15.9036 15.8314 15.7695C16.5846 15.5248 17.3959 15.5248 18.149 15.7695C18.6773 15.9411 19.1757 16.2991 19.8885 16.9603C19.8711 16.9756 19.8537 16.9911 19.8364 17.0067C18.7509 17.984 18.0027 19.28 17.699 20.7087C17.4873 21.7049 17.5728 22.6349 17.7253 23.4714C17.8669 24.2483 18.1107 25.1582 18.3776 26.154L18.3798 26.1622Z" fill="#06B6D4" stroke="#06B6D4" stroke-width="0.5"/>
<path d="M26.6067 25.0697C26.8262 25.0109 26.9755 24.8484 27.0545 24.5821C27.1346 24.3139 27.1079 23.9338 26.9744 23.4418C26.8882 23.1201 26.7857 22.8657 26.667 22.6786C26.5482 22.4915 26.4193 22.3642 26.2804 22.2969C26.141 22.228 25.9982 22.2132 25.8518 22.2524C25.6323 22.3113 25.483 22.4705 25.4039 22.7303C25.3248 22.99 25.3483 23.3612 25.4743 23.8438C25.5606 24.1719 25.6641 24.4334 25.785 24.6281C25.9054 24.8214 26.0354 24.9532 26.1752 25.0236C26.3165 25.0935 26.4603 25.1089 26.6067 25.0697Z" fill="#06B6D4"/>
<path fill-rule="evenodd" clip-rule="evenodd" d="M21.2219 25.4479C20.6421 23.284 20.3522 22.202 20.5519 21.2627C20.7275 20.4365 21.1602 19.687 21.788 19.1218C22.5016 18.4792 23.5836 18.1893 25.7474 17.6095L33.99 15.4009C36.1539 14.8211 37.2358 14.5312 38.1751 14.7308C39.0014 14.9065 39.7508 15.3392 40.3161 15.9669C40.7347 16.4319 41.0037 17.0531 41.3006 18.0281C40.0535 18.6678 39.0395 19.6843 38.4031 20.9334C37.9616 21.7998 37.8078 22.6837 37.7398 23.5157C37.6764 24.2925 37.6764 25.2262 37.6765 26.2638V37.6563C37.6764 38.6938 37.6764 39.6275 37.7398 40.4044C37.8078 41.2363 37.9616 42.1202 38.4031 42.9866C39.0423 44.241 40.0621 45.2609 41.3165 45.9001C41.6524 46.0712 41.991 46.1991 42.3281 46.2956L34.0296 48.5191C31.8658 49.0989 30.7838 49.3888 29.8445 49.1892C29.0182 49.0135 28.2688 48.5808 27.7036 47.9531C27.061 47.2394 26.7711 46.1575 26.1913 43.9936L21.2219 25.4479ZM30.4901 19.9802L31.7449 24.6635L30.4735 25.0042L29.5323 21.4917L29.5049 21.4991L28.6446 22.3864L28.3554 21.3071L29.3192 20.2939L30.4901 19.9802ZM26.8837 26.1033C26.4579 26.2158 26.0642 26.2159 25.7024 26.1037C25.3406 25.9915 25.0267 25.7741 24.7605 25.4517C24.4944 25.1292 24.2933 24.7109 24.1571 24.1967C24.0206 23.681 23.9872 23.221 24.057 22.8167C24.1282 22.412 24.2927 22.0746 24.5505 21.8046C24.8097 21.5341 25.152 21.3419 25.5773 21.228C26.0026 21.114 26.3954 21.1101 26.7555 21.2162C27.1152 21.3208 27.4271 21.5305 27.6912 21.8453C27.9553 22.1602 28.1554 22.5747 28.2916 23.0889C28.4301 23.6057 28.4647 24.0702 28.3954 24.4826C28.3262 24.8949 28.163 25.2401 27.9058 25.5182C27.6497 25.7943 27.309 25.9894 26.8837 26.1033Z" fill="#06B6D4"/>
</svg>
