<svg width="17" height="16" viewBox="0 0 17 16" fill="none" xmlns="http://www.w3.org/2000/svg">
<path fill-rule="evenodd" clip-rule="evenodd" d="M15.1667 3.95075C14.6762 4.16852 14.1489 4.31519 13.5956 4.3813C14.1606 4.04297 14.5945 3.50686 14.7984 2.86797C14.27 3.1813 13.6845 3.40908 13.0612 3.53186C12.5628 3.00019 11.8512 2.66797 11.0645 2.66797C9.29837 2.66797 8.0006 4.31575 8.39949 6.0263C6.12671 5.91241 4.11115 4.82352 2.76171 3.16852C2.04504 4.39797 2.39004 6.0063 3.60782 6.82075C3.16004 6.8063 2.73782 6.68352 2.36949 6.47852C2.33949 7.74575 3.24782 8.9313 4.56337 9.19519C4.17837 9.29964 3.75671 9.32408 3.32782 9.24186C3.6756 10.3285 4.6856 11.1191 5.88337 11.1413C4.73337 12.043 3.28449 12.4457 1.83337 12.2746C3.04393 13.0507 4.48226 13.5035 6.02671 13.5035C11.1056 13.5035 13.975 9.21408 13.8017 5.36686C14.3362 4.98075 14.8 4.49908 15.1667 3.95075Z" fill="#6B7280"/>
</svg>
